HIERARCHY
ROOT root
{
	OFFSET	0	13.1	24.9
	CHANNELS 6  Xposition Yposition Zposition Xrotation Yrotation Zrotation
	JOINT spine_1
	{
		OFFSET	0	9.99999	0
		CHANNELS 3  Xrotation Yrotation Zrotation
		JOINT spine_2
		{
			OFFSET	0	112	-10
			CHANNELS 3  Xrotation Yrotation Zrotation
			JOINT spine_3
			{
				OFFSET	0	206.5	19.3
				CHANNELS 3  Xrotation Yrotation Zrotation
				JOINT spine_4
				{
					OFFSET	0	110.4	14.6
					CHANNELS 3  Xrotation Yrotation Zrotation
					JOINT neck_1
					{
						OFFSET	0	71.8	-50.3
						CHANNELS 3  Xrotation Yrotation Zrotation
						JOINT neck_2
						{
							OFFSET	0	86.2	-25.8
							CHANNELS 3  Xrotation Yrotation Zrotation
							JOINT head_ee
							{
								OFFSET	0	179.8	-8.7
								CHANNELS 3  Xrotation Yrotation Zrotation
								End Site
								{
									OFFSET	1	0	0
								}
							}
						}
					}
					JOINT left_clavicle
					{
						OFFSET	-43.2	22.4	-70.8
						CHANNELS 3  Xrotation Yrotation Zrotation
						JOINT left_shoulder
						{
							OFFSET	-93.9	-5.79999	48.7
							CHANNELS 3  Xrotation Yrotation Zrotation
							JOINT left_elbow
							{
								OFFSET	-291.4	-30.8	15.2
								CHANNELS 3  Xrotation Yrotation Zrotation
								JOINT left_lowarm_twist
								{
									OFFSET	-110.7	-3.89999	13.6
									CHANNELS 3  Xrotation Yrotation Zrotation
									JOINT left_hand
									{
										OFFSET	-110.7	-3.89999	13.6
										CHANNELS 3  Xrotation Yrotation Zrotation
										JOINT left_ee
										{
											OFFSET	-80.8	-5.10001	12.1
											CHANNELS 3  Xrotation Yrotation Zrotation
											End Site
											{
												OFFSET	1	0	0
											}
										}
									}
								}
							}
						}
					}
					JOINT right_clavicle
					{
						OFFSET	43.2	22.4	-70.8
						CHANNELS 3  Xrotation Yrotation Zrotation
						JOINT right_shoulder
						{
							OFFSET	93.9	-5.79999	48.7
							CHANNELS 3  Xrotation Yrotation Zrotation
							JOINT right_elbow
							{
								OFFSET	291.4	-30.8	15.2
								CHANNELS 3  Xrotation Yrotation Zrotation
								JOINT right_lowarm_twist
								{
									OFFSET	110.7	-3.89999	13.6
									CHANNELS 3  Xrotation Yrotation Zrotation
									JOINT right_hand
									{
										OFFSET	110.7	-3.89999	13.6
										CHANNELS 3  Xrotation Yrotation Zrotation
										JOINT right_ee
										{
											OFFSET	80.8	-5.10001	12.1
											CHANNELS 3  Xrotation Yrotation Zrotation
											End Site
											{
												OFFSET	1	0	0
											}
										}
									}
								}
							}
						}
					}
				}
			}
		}
	}
	JOINT left_hip
	{
		OFFSET	-82.8	-127.5	0.300001
		CHANNELS 3  Xrotation Yrotation Zrotation
		JOINT left_knee
		{
			OFFSET	-28.2	-396.7	2.2
			CHANNELS 3  Xrotation Yrotation Zrotation
			JOINT left_ankle
			{
				OFFSET	-11.7	-411.3	35.4
				CHANNELS 3  Xrotation Yrotation Zrotation
				JOINT left_toes
				{
					OFFSET	0	-60	-88.6
					CHANNELS 3  Xrotation Yrotation Zrotation
					JOINT left_foot_ee
					{
						OFFSET	-22.5	-16.5	-42.2
						CHANNELS 3  Xrotation Yrotation Zrotation
						End Site
						{
							OFFSET	1	0	0
						}
					}
				}
			}
		}
	}
	JOINT right_hip
	{
		OFFSET	82.8	-127.5	0.300001
		CHANNELS 3  Xrotation Yrotation Zrotation
		JOINT right_knee
		{
			OFFSET	28.2	-396.7	2.2
			CHANNELS 3  Xrotation Yrotation Zrotation
			JOINT right_ankle
			{
				OFFSET	11.7	-411.3	35.4
				CHANNELS 3  Xrotation Yrotation Zrotation
				JOINT right_toes
				{
					OFFSET	0	-60	-88.6
					CHANNELS 3  Xrotation Yrotation Zrotation
					JOINT right_foot_ee
					{
						OFFSET	22.5	-16.5	-42.2
						CHANNELS 3  Xrotation Yrotation Zrotation
						End Site
						{
							OFFSET	1	0	0
						}
					}
				}
			}
		}
	}
}
MOTION
Frames: 5
Frame Time: 0.02
2820.33556513 699.536 -1625.57826249 22.8520190728 72.2090332589 -20.4163099695 -3.06218 0.127804 0.668294 -3.06193 0.0850203 0.675072 -3.06058 -0.0948737 0.673758 -3.06121 0.0127219 0.680285 -8.26598 8.06763 7.25357 -8.14234 9.9783 8.93632 -0.0 0.0 -0.0 6.35371 1.45673 12.3253 2.07939 -27.2119 53.7326 1.3865 -34.4807 0.430284 -29.1802 -1.88069 3.1804 -1.7924 2.82296 -10.7465 -0.0 0.0 -0.0 10.9024 4.05497 -21.732 -24.0268 38.5472 -51.736 0.645723 17.7381 -0.100761 2.87047 -0.0922559 0.354991 0.681331 -29.0961 -15.151 0.0 0.0 0.0 -5.07989 28.8206 -1.10304 6.43628 -0.318022 -0.935633 8.46542 -22.681 -1.40587 6.63508 -0.0 -0.0 -0.0 0.0 -0.0 11.3741 8.09734 -4.57612 -51.6511 1.36898 -7.54412 26.5045 -25.1232 3.69553 -21.3276 0.0 0.0 0.0 0.0 0.0 
2804.12192071 697.759 -1621.25075496 20.0026459332 70.8611010339 -17.1065039022 -2.81244 -0.0521598 0.566144 -2.81226 -0.0880787 0.561677 -2.81298 -0.229965 0.519958 -2.81332 -0.144962 0.54975 -9.0859 7.68705 7.34077 -8.96172 9.34916 8.9871 -0.0 0.0 -0.0 6.62279 1.72497 12.8497 2.76459 -27.655 52.0248 1.55098 -37.5328 0.527011 -30.2618 -1.97996 3.27724 -1.7137 0.294525 -11.3871 -0.0 0.0 -0.0 10.3826 2.8929 -20.5792 -25.0274 38.2372 -51.908 0.564456 15.622 -0.0774317 3.87269 -0.120259 0.479947 0.979698 -28.4039 -16.6326 0.0 0.0 0.0 -6.26328 29.9773 -0.719685 5.82398 -0.283254 -0.848197 10.0402 -22.892 -1.66039 7.58837 -0.0 -0.0 -0.0 0.0 -0.0 13.4563 8.5958 -4.87915 -50.0215 1.22404 -7.33922 24.9813 -21.9346 3.4499 -21.3204 0.0 0.0 0.0 0.0 0.0 
2787.64544806 697.662 -1613.13895057 18.8351477433 70.5201910446 -15.6397586038 -2.74405 0.0102481 0.281885 -2.74401 -0.00770967 0.281966 -2.744 -0.0798437 0.270536 -2.7441 -0.0361158 0.27975 -9.24882 7.94743 7.37146 -9.12701 9.84672 9.08814 -0.0 0.0 -0.0 6.72146 1.80002 13.0416 4.05361 -28.3267 51.3863 1.68147 -39.7893 0.608543 -31.2663 -2.07378 3.3655 -1.9901 -0.325852 -13.5672 -0.0 0.0 -0.0 10.5878 4.2462 -21.0617 -26.5856 36.3267 -52.3529 0.466783 13.0199 -0.0532658 2.93318 -0.0940723 0.362794 0.771901 -29.2028 -15.6905 0.0 0.0 0.0 -7.27247 31.0475 -0.439129 5.74045 -0.278584 -0.83624 11.8178 -25.107 -1.98641 8.39395 -0.0 -0.0 -0.0 0.0 -0.0 15.4642 10.2432 -4.81142 -48.9609 1.13289 -7.20373 24.7665 -18.3654 3.37322 -21.1071 0.0 0.0 0.0 0.0 0.0 
2770.00955341 701.781 -1601.42978918 18.5006742289 71.1660207313 -15.1742662495 -2.75106 -0.0528789 0.249706 -2.75103 -0.0686611 0.245835 -2.7513 -0.129504 0.21995 -2.75136 -0.0931419 0.237642 -8.70004 8.1911 6.28688 -8.61942 10.9646 8.04642 -0.0 0.0 -0.0 7.18684 2.01163 13.9477 5.37723 -29.5672 51.0972 1.82047 -42.0403 0.699596 -33.2536 -2.26391 3.53524 -2.12595 -1.5969 -15.1019 -0.0 0.0 -0.0 10.3031 4.70113 -20.4636 -29.0739 34.786 -52.5338 0.421141 11.7843 -0.0434626 2.64641 -0.0856965 0.327122 0.911357 -29.3364 -16.5132 0.0 0.0 0.0 -8.07864 31.1973 0.11901 5.81209 -0.282589 -0.846496 10.3836 -25.5662 -1.76555 10.0936 -0.0 -0.0 -0.0 0.0 -0.0 17.9025 11.4251 -5.18145 -49.7601 1.20134 -7.30599 23.5559 -14.2137 3.18818 -20.5618 0.0 0.0 0.0 0.0 0.0 
2736.67830077 701.769 -1587.17016014 17.4785518867 71.6545212123 -13.8185290535 -2.65317 -0.092957 -0.132226 -2.65316 -0.0843547 -0.137874 -2.65294 -0.0463759 -0.154836 -2.65297 -0.0702473 -0.145568 -7.75323 7.96832 6.44052 -7.65656 10.281 8.08112 -0.0 0.0 -0.0 6.97291 0.342638 13.5382 6.23993 -30.07 50.7505 2.48548 -50.9087 1.18323 -35.5367 -2.48948 3.72203 -2.21038 -5.00767 -17.2793 -0.0 0.0 -0.0 9.80368 6.30738 -19.4179 -33.1162 31.1455 -54.5658 0.362029 10.1675 -0.0322067 2.80998 -0.090496 0.347465 0.934438 -29.2745 -16.6256 0.0 0.0 0.0 -9.57284 30.1923 -0.34271 5.23713 -0.250813 -0.764057 12.6105 -27.4624 -2.17126 12.9405 -0.0 -0.0 -0.0 0.0 -0.0 19.9941 14.2577 -5.61454 -32.7139 0.0694149 -4.95241 11.0227 0.189119 1.57651 -22.7055 0.0 0.0 0.0 0.0 0.0 
